<?xml version="1.0" encoding="UTF-8"?>
<svg xmlns="http://www.w3.org/2000/svg" version="1.1" viewBox="0 0 800 800">
  <!-- Generator: Adobe Illustrator 30.1.0, SVG Export Plug-In . SVG Version: 2.1.1 Build 136)  -->
  <path d="M648.8,679.9H151.2c-34.3,0-62.2-27.9-62.2-62.2V182.3c0-34.3,27.9-62.2,62.2-62.2h174c16.4,0,31.9,6.5,43.5,18,0,0,0,0,0,0l75.2,75.2h204.8c34.3,0,62.2,27.9,62.2,62.2v342.1c0,34.3-27.9,62.2-62.2,62.2ZM151.2,182.3v435.5h497.7v-342.1s0,0,0,0h-205s0,0-.1,0c-16.4,0-31.9-6.5-43.5-18,0,0,0,0,0,0l-75.2-75.2h-173.7ZM324.9,182.3h0,0Z"/>
</svg>