<?xml version="1.0" encoding="UTF-8"?>
<svg id="Capa_1" xmlns="http://www.w3.org/2000/svg" version="1.1" viewBox="0 0 800 800">
  <!-- Generator: Adobe Illustrator 30.1.0, SVG Export Plug-In . SVG Version: 2.1.1 Build 136)  -->
  <path d="M286.4,448.8l173.7-173.7-31.2-31.2-173.7,173.7c-10.6,10.6-18.6,22.9-23.9,36-8,19.7-9.9,41.1-6,61.6,4,20.5,14,40.3,29.9,56.1,10.6,10.6,22.9,18.6,36,23.9,19.7,8,41.1,9.9,61.6,6,20.5-4,40.3-14,56.1-29.9l213-213c14.5-14.5,25.4-31.3,32.7-49.2,10.9-26.9,13.6-56.3,8.2-84.4-5.4-28.1-19.1-55.1-40.8-76.8-14.5-14.5-31.3-25.4-49.2-32.7-26.9-10.9-56.2-13.6-84.4-8.2-28.1,5.4-55.1,19.1-76.8,40.9l-221.2,221.2c-18.6,18.6-32.7,40.3-42,63.3-14,34.6-17.5,72.3-10.5,108.5,7,36.1,24.6,70.8,52.5,98.7,18.6,18.6,40.2,32.7,63.3,42,34.6,14,72.3,17.5,108.5,10.5,36.1-7,70.8-24.6,98.7-52.5l181.9-181.9-31.2-31.2-181.9,181.9c-14.4,14.4-31,25.2-48.7,32.3-26.5,10.8-55.7,13.5-83.5,8.1-27.9-5.4-54.3-18.8-75.9-40.4-14.4-14.4-25.2-31-32.3-48.7-10.8-26.5-13.5-55.7-8.1-83.5,5.4-27.8,18.8-54.3,40.4-75.9l221.2-221.2c10.3-10.3,22-17.9,34.6-23,18.9-7.7,39.6-9.6,59.4-5.7,19.8,3.9,38.6,13.4,54,28.7,10.3,10.3,17.9,22,23,34.6,7.7,18.9,9.6,39.6,5.8,59.4-3.9,19.8-13.4,38.6-28.7,54l-213,213c-6.4,6.3-13.6,11-21.4,14.2-11.6,4.7-24.5,5.9-36.7,3.5-12.2-2.4-23.8-8.2-33.3-17.8-6.4-6.4-11-13.6-14.2-21.4-4.7-11.6-5.9-24.5-3.6-36.7,2.4-12.2,8.2-23.8,17.7-33.3Z"/>
</svg>