<?xml version="1.0" encoding="UTF-8"?>
<svg id="document" xmlns="http://www.w3.org/2000/svg" version="1.1" viewBox="0 0 800 800">
  <!-- Generator: Adobe Illustrator 30.1.0, SVG Export Plug-In . SVG Version: 2.1.1 Build 136)  -->
  <path d="M639.8,711H160.2c-10.7,0-19.4-8.7-19.4-19.4V108.4c0-10.7,8.7-19.4,19.4-19.4h319.8c5.2,0,10.1,2,13.7,5.7l159.7,159.7c3.6,3.6,5.7,8.6,5.7,13.7v423.5c0,10.7-8.7,19.4-19.4,19.4ZM212.1,659.2h375.8c10.7,0,19.4-8.7,19.4-19.4v-298.1c0-10.7-8.7-19.4-19.4-19.4h-142.6c-10.7,0-19.4-8.7-19.4-19.4v-162h-213.8c-10.7,0-19.4,8.7-19.4,19.4v479.5c0,10.7,8.7,19.4,19.4,19.4ZM477.8,270.4h119.2l-119.2-119.2v119.2Z"/>
</svg>