<?xml version="1.0" encoding="UTF-8"?>
<svg id="Capa_1" xmlns="http://www.w3.org/2000/svg" version="1.1" viewBox="0 0 800 800">
  <!-- Generator: Adobe Illustrator 30.1.0, SVG Export Plug-In . SVG Version: 2.1.1 Build 136)  -->
  <path d="M727.4,389.4c-69.7-138.4-192-222.2-327.4-222.2S142.1,251,73,389.4l-5.8,10.4,5.4,10.7c69.7,138.4,192,222.2,327.4,222.2s257.9-82.7,327.4-222.2l5.4-10.7-5.4-10.4ZM400,587.2c-116.5,0-223.5-69.8-285.6-187.3,62.1-117.6,169.1-187.3,285.6-187.3s222.3,70,285.4,187.3c-63.1,117.6-169.1,187.3-285.4,187.3Z"/>
  <path d="M406,248.1c-78.4.6-141.5,69.4-140.9,153.6s64.6,151.9,143,151.3c78.2-.6,141.3-69.1,140.9-153.1-.3-84.2-64.2-152.1-142.6-151.8-.1,0-.3,0-.4,0ZM406,508.6c-55.5-.6-100.1-49.5-99.5-109.1s46.1-107.5,101.6-106.9c54.9.6,99.2,48.4,99.5,107.3.2,59.8-44.7,108.4-100.4,108.7-.4,0-.8,0-1.2,0Z"/>
</svg>