<?xml version="1.0" encoding="UTF-8"?>
<svg xmlns="http://www.w3.org/2000/svg" version="1.1" viewBox="0 0 800 800">
  <!-- Generator: Adobe Illustrator 30.1.0, SVG Export Plug-In . SVG Version: 2.1.1 Build 136)  -->
  <path d="M166.7,363v321.6c0,14.6,11.9,26.4,26.4,26.4h413.8c14.6,0,26.4-11.9,26.4-26.4v-321.6c0-14.6-11.9-26.4-26.4-26.4h-297.8v-104.1c0-50,40.7-90.9,90.9-90.9,50,0,90.9,40.7,90.9,90.9,0,14.6,11.8,26.4,26.4,26.4s26.4-11.9,26.4-26.4c0-79.1-64.6-143.6-143.7-143.6-79.1,0-143.7,64.6-143.7,143.7v104.1h-63.2c-14.5,0-26.4,11.8-26.4,26.3ZM218.2,658.2v-268.8h362.4v268.8H218.1s.1,0,.1,0Z"/>
</svg>